<svg width="122" height="26" viewBox="0 0 122 26" fill="none" xmlns="http://www.w3.org/2000/svg">
<path d="M63.5375 10.3805C65.6217 10.3805 67.3891 11.8608 67.5252 13.7723H59.479C59.6152 11.8608 61.2909 10.3805 63.5349 10.3805M67.2163 17.5375C66.237 18.6181 65.0326 19.165 63.6056 19.165C62.4273 19.165 61.4533 18.8232 60.6599 18.1633C59.8665 17.5033 59.4581 16.6383 59.4371 15.5681H69.8608V14.7715C69.8608 11.1299 67.1875 8.40063 63.5139 8.40063C59.8404 8.40063 57.1016 11.0168 57.1016 14.8188C57.1016 18.6208 59.6623 21.1449 63.6056 21.1449C66.1401 21.1449 68.0856 20.1694 69.4236 18.1975L67.2189 17.5375H67.2163Z" fill="#292929"/>
<path d="M81.9254 13.9669C81.9254 12.0554 80.0664 10.4857 77.7544 10.4857C75.2172 10.4857 73.5179 12.2158 73.5179 14.7873C73.5179 17.3587 75.1936 19.0888 77.846 19.0888C80.1109 19.0888 81.9254 17.5191 81.9254 15.6076V13.9696V13.9669ZM77.5292 8.41382C79.3411 8.41382 80.9069 9.00541 81.8809 10.0755H81.9254V4.20428H84.2584V20.8189H82.059V19.4543H82.0145C81.0849 20.5481 79.4746 21.1607 77.6392 21.1607C73.9002 21.1607 71.1797 18.4762 71.1797 14.7899C71.1797 11.1036 73.9211 8.41644 77.5266 8.41644" fill="#292929"/>
<path d="M86.3602 8.75563H88.6958V20.8163H86.3602V8.75563ZM87.4259 4.20428H87.5385C88.214 4.20428 88.7613 4.75381 88.7613 5.43218C88.7613 6.11054 88.214 6.66006 87.5385 6.66006H87.4259C86.7504 6.66006 86.2031 6.11054 86.2031 5.43218C86.2031 4.75381 86.7504 4.20428 87.4259 4.20428Z" fill="#292929"/>
<path d="M95.1276 8.75558H96.9867V10.7591H93.1351C93.1351 9.65218 94.0279 8.75558 95.1303 8.75558M93.1324 10.7565V17.6295C93.1324 18.4472 93.4257 18.6996 94.4233 18.6996H96.4185V20.8162H94.3107C91.7945 20.8162 90.7969 19.8828 90.7969 17.6768V5.93433H93.1324V10.7591V10.7565Z" fill="#292929"/>
<path d="M56.2948 8.40063C54.4829 8.40063 53.1083 9.0159 52.15 10.0834L52.1447 9.9046V8.74507H49.9453V20.8057H52.2809V14.1825C52.2809 13.2412 52.4406 12.8231 52.6265 12.4577C53.2549 11.2245 54.6243 10.3805 56.3184 10.3805C56.5043 10.3805 56.6876 10.3937 56.8656 10.4147L57.261 8.46637C56.9468 8.4243 56.6247 8.40063 56.2948 8.40063Z" fill="#292929"/>
<path d="M45.8428 15.7916C45.0128 17.8451 43.2428 18.9389 40.9465 18.9389C37.6159 18.9389 35.2123 16.4595 35.2123 12.8389C35.2123 9.21835 37.6133 6.73892 40.9465 6.73892C43.3344 6.73892 45.1411 7.84585 45.9292 9.83887L48.2805 9.13159C47.3091 6.31822 44.4446 4.53292 40.9465 4.53292C36.2544 4.46456 32.6751 8.15085 32.7431 12.8389C32.6751 17.527 36.257 21.2133 40.9465 21.1449C44.4027 21.1449 47.1467 19.3728 48.1967 16.4963L45.8428 15.7916Z" fill="#292929"/>
<path d="M106.417 16.5147C106.417 17.903 104.603 19.1099 102.566 19.1099C100.775 19.1099 99.9812 18.6077 99.9812 17.4928C99.9812 16.4911 100.934 15.9442 103.38 15.513C105.283 15.1712 106.077 14.853 106.373 14.3061H106.417V16.5147ZM103.469 8.41383C101.95 8.41383 100.659 8.80033 99.6172 9.55232C98.6851 10.2096 98.0829 11.0747 97.7948 12.1185L99.9812 12.7732C100.411 11.3034 101.699 10.4174 103.49 10.4174C105.145 10.4174 106.231 11.0773 106.231 12.1028C106.231 12.9231 105.414 13.3543 102.969 13.7408C99.1616 14.3087 97.6875 15.4025 97.6875 17.5638C97.6875 19.7251 99.3868 21.1581 102.128 21.1581C104.008 21.1581 105.663 20.4745 106.456 19.3597H106.501V20.8163H108.7V12.5997C108.7 10.0282 106.661 8.41119 103.466 8.41119" fill="#292929"/>
<path d="M112.043 16.2649C112.472 18.2212 113.923 19.2019 116.348 19.2019C118.455 19.2019 119.223 18.3737 119.223 17.4587C119.223 16.6725 118.817 16.0388 116.12 15.6523C111.836 15.0607 110.341 14.0353 110.341 12.0107C110.341 9.84942 112.425 8.41644 115.575 8.41644C118.222 8.41644 120.362 10.0045 121.089 12.2631L118.997 12.7732C118.201 11.1246 116.829 10.3727 115.306 10.299C113.611 10.2175 112.685 10.9222 112.745 11.9266C112.787 12.6365 113.271 13.3359 116.303 13.7198C120.678 14.2746 121.49 16.1387 121.49 17.4613C121.49 18.9416 120.113 21.1634 116.348 21.1634C112.857 21.1634 110.273 19.4122 109.867 16.7487L112.043 16.2702V16.2649Z" fill="#292929"/>
<path d="M19.5487 25.7568H6.21075C2.7807 25.7568 0 22.9776 0 19.5463V6.21044C0 2.78181 2.7807 0 6.21075 0H19.5487C22.9787 0 25.7594 2.77918 25.7594 6.21044V19.5463C25.7594 22.9749 22.9787 25.7568 19.5487 25.7568Z" fill="#8EDB00"/>
<path d="M8.04168 11.8398C8.04168 11.8398 8.29043 7.2964 11.676 5.62941C12.9406 5.00626 13.9199 4.75385 15.0039 4.75385C16.8813 4.75385 18.1721 5.21135 19.1723 5.92126C20.5731 6.91251 21.1492 8.25609 21.1492 8.25609L18.4051 8.52954C18.4051 8.52954 17.0043 6.4629 14.2524 6.42346C8.74863 6.33932 8.03906 11.8425 8.03906 11.8425" fill="#292929"/>
<path d="M8.01823 13.5672C8.01823 13.5672 8.26698 18.1107 11.6525 19.7776C12.9172 20.4008 13.8965 20.6532 14.9805 20.6532C16.8578 20.6532 18.1487 20.1957 19.1489 19.4858C20.5497 18.4945 21.1257 17.151 21.1257 17.151L18.3817 16.8775C18.3817 16.8775 16.9809 18.9441 14.229 18.9836C8.72519 19.0677 8.01562 13.5646 8.01562 13.5646" fill="#292929"/>
<path d="M5.87703 13.2649C5.80371 11.3481 6.27241 9.66272 6.83536 8.38487C8.67083 4.21478 12.8811 3.37866 12.8811 3.37866C12.8811 3.37866 10.9226 3.58637 8.87767 4.58814C6.57875 5.71612 4.35576 8.01676 3.82947 11.5138C3.75878 11.9897 3.71164 12.8232 3.74568 13.349C3.87136 15.2263 4.49716 16.8145 5.45548 18.1054C6.66516 19.733 8.00052 20.6901 9.17093 21.2764C10.6712 22.0257 12.7973 22.2361 12.7973 22.2361C12.7973 22.2361 8.71009 21.3605 6.91913 17.4402C6.41641 16.3385 5.93725 14.8609 5.87703 13.2675" fill="#292929"/>
</svg>
